<svg xmlns="http://www.w3.org/2000/svg" viewBox="0 0 2400 1260" width="2400" height="1260" role="img" aria-label="LUMINARA — 22 Arcana Icons (SVG)">
  <defs>
    <radialGradient id="bg-rad" cx="50%" cy="40%" r="80%">
      <stop offset="0%"  stop-color="#0e1220"/>
      <stop offset="60%" stop-color="#06060e"/>
      <stop offset="100%" stop-color="#02020a"/>
    </radialGradient>
    <linearGradient id="accent-line" x1="0" y1="0" x2="1" y2="0">
      <stop offset="0%"   stop-color="#a855f7" stop-opacity="0"/>
      <stop offset="50%"  stop-color="#a855f7" stop-opacity="0.7"/>
      <stop offset="100%" stop-color="#a855f7" stop-opacity="0"/>
    </linearGradient>
    <filter id="glow" x="-30%" y="-30%" width="160%" height="160%">
      <feGaussianBlur stdDeviation="20" result="b"/>
      <feMerge><feMergeNode in="b"/><feMergeNode in="SourceGraphic"/></feMerge>
    </filter>
  </defs>

  <!-- base -->
  <rect width="2400" height="1260" fill="url(#bg-rad)"/>

  <!-- diagonal accent lines (top-left and bottom-right) -->
  <g stroke="#a855f7" stroke-opacity="0.25" stroke-width="1" fill="none">
    <line x1="0" y1="200" x2="2400" y2="0"/>
    <line x1="0" y1="400" x2="2400" y2="200"/>
    <line x1="0" y1="1060" x2="2400" y2="1260"/>
    <line x1="0" y1="860" x2="2400" y2="1060"/>
  </g>

  <!-- scan lines -->
  <g fill="#ffffff" fill-opacity="0.02">
    <rect x="0" y="0" width="2400" height="1"/><rect x="0" y="6" width="2400" height="1"/><rect x="0" y="12" width="2400" height="1"/><rect x="0" y="18" width="2400" height="1"/><rect x="0" y="24" width="2400" height="1"/><rect x="0" y="30" width="2400" height="1"/><rect x="0" y="36" width="2400" height="1"/><rect x="0" y="42" width="2400" height="1"/><rect x="0" y="48" width="2400" height="1"/><rect x="0" y="54" width="2400" height="1"/><rect x="0" y="60" width="2400" height="1"/><rect x="0" y="66" width="2400" height="1"/><rect x="0" y="72" width="2400" height="1"/><rect x="0" y="78" width="2400" height="1"/><rect x="0" y="84" width="2400" height="1"/><rect x="0" y="90" width="2400" height="1"/><rect x="0" y="96" width="2400" height="1"/><rect x="0" y="102" width="2400" height="1"/><rect x="0" y="108" width="2400" height="1"/><rect x="0" y="114" width="2400" height="1"/><rect x="0" y="120" width="2400" height="1"/><rect x="0" y="126" width="2400" height="1"/><rect x="0" y="132" width="2400" height="1"/><rect x="0" y="138" width="2400" height="1"/><rect x="0" y="144" width="2400" height="1"/><rect x="0" y="150" width="2400" height="1"/><rect x="0" y="156" width="2400" height="1"/><rect x="0" y="162" width="2400" height="1"/><rect x="0" y="168" width="2400" height="1"/><rect x="0" y="174" width="2400" height="1"/><rect x="0" y="180" width="2400" height="1"/><rect x="0" y="186" width="2400" height="1"/><rect x="0" y="192" width="2400" height="1"/><rect x="0" y="198" width="2400" height="1"/><rect x="0" y="204" width="2400" height="1"/><rect x="0" y="210" width="2400" height="1"/><rect x="0" y="216" width="2400" height="1"/><rect x="0" y="222" width="2400" height="1"/><rect x="0" y="228" width="2400" height="1"/><rect x="0" y="234" width="2400" height="1"/><rect x="0" y="240" width="2400" height="1"/><rect x="0" y="246" width="2400" height="1"/><rect x="0" y="252" width="2400" height="1"/><rect x="0" y="258" width="2400" height="1"/><rect x="0" y="264" width="2400" height="1"/><rect x="0" y="270" width="2400" height="1"/><rect x="0" y="276" width="2400" height="1"/><rect x="0" y="282" width="2400" height="1"/><rect x="0" y="288" width="2400" height="1"/><rect x="0" y="294" width="2400" height="1"/><rect x="0" y="300" width="2400" height="1"/><rect x="0" y="306" width="2400" height="1"/><rect x="0" y="312" width="2400" height="1"/><rect x="0" y="318" width="2400" height="1"/><rect x="0" y="324" width="2400" height="1"/><rect x="0" y="330" width="2400" height="1"/><rect x="0" y="336" width="2400" height="1"/><rect x="0" y="342" width="2400" height="1"/><rect x="0" y="348" width="2400" height="1"/><rect x="0" y="354" width="2400" height="1"/><rect x="0" y="360" width="2400" height="1"/><rect x="0" y="366" width="2400" height="1"/><rect x="0" y="372" width="2400" height="1"/><rect x="0" y="378" width="2400" height="1"/><rect x="0" y="384" width="2400" height="1"/><rect x="0" y="390" width="2400" height="1"/><rect x="0" y="396" width="2400" height="1"/><rect x="0" y="402" width="2400" height="1"/><rect x="0" y="408" width="2400" height="1"/><rect x="0" y="414" width="2400" height="1"/><rect x="0" y="420" width="2400" height="1"/><rect x="0" y="426" width="2400" height="1"/><rect x="0" y="432" width="2400" height="1"/><rect x="0" y="438" width="2400" height="1"/><rect x="0" y="444" width="2400" height="1"/><rect x="0" y="450" width="2400" height="1"/><rect x="0" y="456" width="2400" height="1"/><rect x="0" y="462" width="2400" height="1"/><rect x="0" y="468" width="2400" height="1"/><rect x="0" y="474" width="2400" height="1"/><rect x="0" y="480" width="2400" height="1"/><rect x="0" y="486" width="2400" height="1"/><rect x="0" y="492" width="2400" height="1"/><rect x="0" y="498" width="2400" height="1"/><rect x="0" y="504" width="2400" height="1"/><rect x="0" y="510" width="2400" height="1"/><rect x="0" y="516" width="2400" height="1"/><rect x="0" y="522" width="2400" height="1"/><rect x="0" y="528" width="2400" height="1"/><rect x="0" y="534" width="2400" height="1"/><rect x="0" y="540" width="2400" height="1"/><rect x="0" y="546" width="2400" height="1"/><rect x="0" y="552" width="2400" height="1"/><rect x="0" y="558" width="2400" height="1"/><rect x="0" y="564" width="2400" height="1"/><rect x="0" y="570" width="2400" height="1"/><rect x="0" y="576" width="2400" height="1"/><rect x="0" y="582" width="2400" height="1"/><rect x="0" y="588" width="2400" height="1"/><rect x="0" y="594" width="2400" height="1"/><rect x="0" y="600" width="2400" height="1"/><rect x="0" y="606" width="2400" height="1"/><rect x="0" y="612" width="2400" height="1"/><rect x="0" y="618" width="2400" height="1"/><rect x="0" y="624" width="2400" height="1"/><rect x="0" y="630" width="2400" height="1"/><rect x="0" y="636" width="2400" height="1"/><rect x="0" y="642" width="2400" height="1"/><rect x="0" y="648" width="2400" height="1"/><rect x="0" y="654" width="2400" height="1"/><rect x="0" y="660" width="2400" height="1"/><rect x="0" y="666" width="2400" height="1"/><rect x="0" y="672" width="2400" height="1"/><rect x="0" y="678" width="2400" height="1"/><rect x="0" y="684" width="2400" height="1"/><rect x="0" y="690" width="2400" height="1"/><rect x="0" y="696" width="2400" height="1"/><rect x="0" y="702" width="2400" height="1"/><rect x="0" y="708" width="2400" height="1"/><rect x="0" y="714" width="2400" height="1"/><rect x="0" y="720" width="2400" height="1"/><rect x="0" y="726" width="2400" height="1"/><rect x="0" y="732" width="2400" height="1"/><rect x="0" y="738" width="2400" height="1"/><rect x="0" y="744" width="2400" height="1"/><rect x="0" y="750" width="2400" height="1"/><rect x="0" y="756" width="2400" height="1"/><rect x="0" y="762" width="2400" height="1"/><rect x="0" y="768" width="2400" height="1"/><rect x="0" y="774" width="2400" height="1"/><rect x="0" y="780" width="2400" height="1"/><rect x="0" y="786" width="2400" height="1"/><rect x="0" y="792" width="2400" height="1"/><rect x="0" y="798" width="2400" height="1"/><rect x="0" y="804" width="2400" height="1"/><rect x="0" y="810" width="2400" height="1"/><rect x="0" y="816" width="2400" height="1"/><rect x="0" y="822" width="2400" height="1"/><rect x="0" y="828" width="2400" height="1"/><rect x="0" y="834" width="2400" height="1"/><rect x="0" y="840" width="2400" height="1"/><rect x="0" y="846" width="2400" height="1"/><rect x="0" y="852" width="2400" height="1"/><rect x="0" y="858" width="2400" height="1"/><rect x="0" y="864" width="2400" height="1"/><rect x="0" y="870" width="2400" height="1"/><rect x="0" y="876" width="2400" height="1"/><rect x="0" y="882" width="2400" height="1"/><rect x="0" y="888" width="2400" height="1"/><rect x="0" y="894" width="2400" height="1"/><rect x="0" y="900" width="2400" height="1"/><rect x="0" y="906" width="2400" height="1"/><rect x="0" y="912" width="2400" height="1"/><rect x="0" y="918" width="2400" height="1"/><rect x="0" y="924" width="2400" height="1"/><rect x="0" y="930" width="2400" height="1"/><rect x="0" y="936" width="2400" height="1"/><rect x="0" y="942" width="2400" height="1"/><rect x="0" y="948" width="2400" height="1"/><rect x="0" y="954" width="2400" height="1"/><rect x="0" y="960" width="2400" height="1"/><rect x="0" y="966" width="2400" height="1"/><rect x="0" y="972" width="2400" height="1"/><rect x="0" y="978" width="2400" height="1"/><rect x="0" y="984" width="2400" height="1"/><rect x="0" y="990" width="2400" height="1"/><rect x="0" y="996" width="2400" height="1"/><rect x="0" y="1002" width="2400" height="1"/><rect x="0" y="1008" width="2400" height="1"/><rect x="0" y="1014" width="2400" height="1"/><rect x="0" y="1020" width="2400" height="1"/><rect x="0" y="1026" width="2400" height="1"/><rect x="0" y="1032" width="2400" height="1"/><rect x="0" y="1038" width="2400" height="1"/><rect x="0" y="1044" width="2400" height="1"/><rect x="0" y="1050" width="2400" height="1"/><rect x="0" y="1056" width="2400" height="1"/><rect x="0" y="1062" width="2400" height="1"/><rect x="0" y="1068" width="2400" height="1"/><rect x="0" y="1074" width="2400" height="1"/><rect x="0" y="1080" width="2400" height="1"/><rect x="0" y="1086" width="2400" height="1"/><rect x="0" y="1092" width="2400" height="1"/><rect x="0" y="1098" width="2400" height="1"/><rect x="0" y="1104" width="2400" height="1"/><rect x="0" y="1110" width="2400" height="1"/><rect x="0" y="1116" width="2400" height="1"/><rect x="0" y="1122" width="2400" height="1"/><rect x="0" y="1128" width="2400" height="1"/><rect x="0" y="1134" width="2400" height="1"/><rect x="0" y="1140" width="2400" height="1"/><rect x="0" y="1146" width="2400" height="1"/><rect x="0" y="1152" width="2400" height="1"/><rect x="0" y="1158" width="2400" height="1"/><rect x="0" y="1164" width="2400" height="1"/><rect x="0" y="1170" width="2400" height="1"/><rect x="0" y="1176" width="2400" height="1"/><rect x="0" y="1182" width="2400" height="1"/><rect x="0" y="1188" width="2400" height="1"/><rect x="0" y="1194" width="2400" height="1"/><rect x="0" y="1200" width="2400" height="1"/><rect x="0" y="1206" width="2400" height="1"/><rect x="0" y="1212" width="2400" height="1"/><rect x="0" y="1218" width="2400" height="1"/><rect x="0" y="1224" width="2400" height="1"/><rect x="0" y="1230" width="2400" height="1"/><rect x="0" y="1236" width="2400" height="1"/><rect x="0" y="1242" width="2400" height="1"/><rect x="0" y="1248" width="2400" height="1"/><rect x="0" y="1254" width="2400" height="1"/>
  </g>

  <!-- corner brackets (large) -->
  <g stroke="#a855f7" stroke-opacity="0.6" stroke-width="2" fill="none">
    <path d="M 80 80 L 80 200 M 80 80 L 200 80"/>
    <path d="M 2320 80 L 2320 200 M 2320 80 L 2200 80"/>
    <path d="M 80 1180 L 80 1060 M 80 1180 L 200 1180"/>
    <path d="M 2320 1180 L 2320 1060 M 2320 1180 L 2200 1180"/>
  </g>

  <!-- top label band -->
  <g font-family="ui-monospace, SFMono-Regular, Menlo, monospace" font-size="28" letter-spacing="6">
    <text x="120" y="160" fill="#94a3b8">LUMINARA · LUMINARA</text>
    <text x="2280" y="160" fill="#94a3b8" text-anchor="end">DIGITAL ASSET  ·  DRAFT</text>
  </g>

  <!-- accent sweep line -->
  <rect x="200" y="240" width="2000" height="2" fill="url(#accent-line)"/>

  <!-- central glyph (huge, with glow) -->
  <g transform="translate(1200.0, 570.0)" filter="url(#glow)">
    <text text-anchor="middle" dominant-baseline="central"
          font-family="ui-serif, Georgia, serif" font-size="640" fill="#a855f7">✺</text>
  </g>

  <!-- product name slab -->
  <g font-family="ui-sans-serif, system-ui, -apple-system, Segoe UI, sans-serif">
    <text x="1200.0" y="1000" text-anchor="middle" font-size="86" font-weight="700" fill="#f1f5f9" letter-spacing="6">LUMINARA — 22 Arcana Icons (SVG)</text>
  </g>

  <!-- asset count -->
  <text x="1200.0" y="1080" text-anchor="middle" font-family="ui-monospace, monospace" font-size="32" letter-spacing="8" fill="#94a3b8">12 ASSETS</text>

  <!-- status badge -->
  <g transform="translate(1080.0, 1120)">
    <rect x="0" y="0" width="240" height="60" rx="6" fill="none" stroke="#a855f7" stroke-opacity="0.7" stroke-width="2"/>
    <text x="120" y="40" text-anchor="middle" font-family="ui-monospace, monospace" font-size="26" letter-spacing="6" fill="#a855f7">DRAFT</text>
  </g>

  <!-- bottom URL -->
  <text x="120" y="1200" font-family="ui-monospace, monospace" font-size="22" letter-spacing="4" fill="#94a3b8">luminara-pages.vercel.app/public/products/luminara-brand-kit-arcana/hero.svg</text>
  <text x="2280" y="1200" text-anchor="end" font-family="ui-monospace, monospace" font-size="22" letter-spacing="4" fill="#94a3b8">v1.0 · procedural · no-AI</text>
</svg>