<svg xmlns="http://www.w3.org/2000/svg" viewBox="0 0 500 260" width="500" height="260">
<rect width="500" height="260" fill="#0a0a0f"/>
<line x1="250" y1="130" x2="360" y2="130" stroke="#c9a84c" stroke-width="3"/><circle cx="360" cy="130" r="8" fill="#c9a84c"/><line x1="250" y1="130" x2="327" y2="207" stroke="#c9a84c" stroke-width="3"/><circle cx="327" cy="207" r="8" fill="#c9a84c"/><line x1="250" y1="130" x2="250" y2="240" stroke="#c9a84c" stroke-width="3"/><circle cx="250" cy="240" r="8" fill="#c9a84c"/><line x1="250" y1="130" x2="172" y2="207" stroke="#c9a84c" stroke-width="3"/><circle cx="172" cy="207" r="8" fill="#c9a84c"/><line x1="250" y1="130" x2="140" y2="130" stroke="#c9a84c" stroke-width="3"/><circle cx="140" cy="130" r="8" fill="#c9a84c"/><line x1="250" y1="130" x2="172" y2="52" stroke="#c9a84c" stroke-width="3"/><circle cx="172" cy="52" r="8" fill="#c9a84c"/><line x1="250" y1="130" x2="249" y2="20" stroke="#c9a84c" stroke-width="3"/><circle cx="249" cy="20" r="8" fill="#c9a84c"/><line x1="250" y1="130" x2="327" y2="52" stroke="#c9a84c" stroke-width="3"/><circle cx="327" cy="52" r="8" fill="#c9a84c"/><circle cx="250" cy="130" r="15" fill="#c9a84c"/>
</svg>